
<?xml version="1.0" encoding="UTF-8"?>
<svg id="_图层_1" data-name="图层 1" xmlns="http://www.w3.org/2000/svg" xmlns:xlink="http://www.w3.org/1999/xlink" viewBox="0 0 386.81 138.11">
  <defs>
    <style>
      .cls-1 {
        fill: #0075ff;
      }

      .cls-2 {
        fill: url(#_未命名的渐变_144);
      }

      .cls-3 {
        fill: url(#_未命名的渐变_16);
      }
    </style>
    <linearGradient id="_未命名的渐变_16" data-name="未命名的渐变 16" x1="32.65" y1="126.61" x2="97.66" y2="121.96" gradientUnits="userSpaceOnUse">
      <stop offset="0" stop-color="#0075ff"/>
      <stop offset=".17" stop-color="#008dfd"/>
      <stop offset=".74" stop-color="#00defa"/>
      <stop offset="1" stop-color="#00fff9"/>
    </linearGradient>
    <linearGradient id="_未命名的渐变_144" data-name="未命名的渐变 144" x1="53.36" y1="124.36" x2="102.17" y2="115.9" gradientUnits="userSpaceOnUse">
      <stop offset="0" stop-color="#f2ff9c" stop-opacity="0"/>
      <stop offset=".11" stop-color="#f2ff9c" stop-opacity=".08"/>
      <stop offset=".33" stop-color="#f2ff9c" stop-opacity=".28"/>
      <stop offset=".65" stop-color="#f2ff9c" stop-opacity=".6"/>
      <stop offset="1" stop-color="#f2ff9c"/>
    </linearGradient>
  </defs>
  <g>
    <path d="m139.57,111.48l-6.34,16.92h3.29l1.61-4.49h7.07l1.56,4.49h3.39l-6.29-16.92h-4.29Zm-.49,9.75l2.46-6.9h.29l2.41,6.9h-5.17Z"/>
    <polygon points="164.49 124.23 164.34 124.23 158.2 111.48 153.3 111.48 153.3 128.4 156.44 128.4 156.44 114.84 156.59 114.84 163.27 128.4 167.61 128.4 167.61 111.48 164.49 111.48 164.49 124.23"/>
    <polygon points="171.75 114.28 176.34 114.28 176.34 128.4 179.53 128.4 179.53 114.28 184.14 114.28 184.14 111.48 171.75 111.48 171.75 114.28"/>
    <path d="m227.46,111.48h-5.41v16.92h3.19v-5.49h2.22c4.63,0,6.51-1.54,6.51-5.8,0-3.98-1.54-5.63-6.51-5.63Zm-.39,8.85h-1.83v-6.27h1.83c2.71,0,3.63.78,3.63,3.1,0,2.46-.9,3.17-3.63,3.17Z"/>
    <polygon points="242.09 121.01 248.43 121.01 248.43 118.35 242.09 118.35 242.09 114.26 248.92 114.26 248.92 111.48 238.9 111.48 238.9 128.4 249.36 128.4 249.36 125.6 242.09 125.6 242.09 121.01"/>
    <polygon points="265.45 124.23 265.3 124.23 259.16 111.48 254.26 111.48 254.26 128.4 257.4 128.4 257.4 114.84 257.55 114.84 264.23 128.4 268.57 128.4 268.57 111.48 265.45 111.48 265.45 124.23"/>
    <path d="m293.44,118.33c-2.68-.66-3.07-1.07-3.07-2.34,0-1.68.93-2.1,2.97-2.1,1.46,0,3.34.32,4.22.63v-2.71c-.88-.32-2.51-.61-4.32-.61-3.9,0-6,1.41-6,4.85,0,3,1.12,3.95,4.68,4.8,2.78.68,3.34,1.17,3.34,2.73,0,1.71-.93,2.29-3.27,2.29-1.8,0-3.83-.34-4.88-.71v2.85c.98.29,2.97.61,4.97.61,4.41,0,6.34-1.68,6.34-5s-1.05-4.36-5-5.32Z"/>
    <path d="m333.84,122.4c0,2.37-.73,3.49-3.68,3.49s-3.66-1.05-3.66-3.49v-10.92h-3.19v11.36c0,4.34,2.41,5.8,6.83,5.8s6.88-1.68,6.88-5.8v-11.36h-3.17v10.92Z"/>
    <path d="m354.42,116.72c0-3.85-1.93-5.24-6.51-5.24h-5.27v16.92h3.19v-6.39h2.19l4.22,6.39h3.76l-4.85-6.75c2.22-.61,3.27-2.1,3.27-4.93Zm-6.95,2.85h-1.63v-5.51h1.63c2.71,0,3.76.46,3.76,2.66,0,2.39-1.05,2.85-3.76,2.85Z"/>
    <path d="m362.54,119.91c0-4.46,1.54-5.93,4.85-5.93,1.44,0,2.63.22,3.68.59v-2.8c-1.02-.34-2.27-.54-3.88-.54-4.93,0-8.07,2.17-8.07,8.7,0,7.07,3.17,8.71,8.02,8.71,1.66,0,3.12-.32,4.12-.71v-2.75c-1.29.46-2.51.66-4,.66-3.24,0-4.73-1.19-4.73-5.93Z"/>
    <polygon points="378.53 121.01 384.87 121.01 384.87 118.35 378.53 118.35 378.53 114.26 385.36 114.26 385.36 111.48 375.34 111.48 375.34 128.4 385.8 128.4 385.8 125.6 378.53 125.6 378.53 121.01"/>
    <path d="m375.95,82.64c1.23,5.47,2.87,10.76,3.62,13.1l5.9-.87c-.39-1.19-2.18-6.94-3.57-12.92l-5.95.7Z"/>
    <path d="m356.21,81.94c-1.39,5.98-3.18,11.74-3.57,12.92l5.9.87c.75-2.34,2.39-7.63,3.62-13.1l-5.95-.7Z"/>
    <path d="m345.51,43.86v4.75h0v32.85c0,4.99-1.67,9.6-4.48,13.3l3.91,4.64c4.07-4.86,6.53-11.12,6.53-17.94v-31.72h16.23c-.18,2.32-2.08,4.15-4.43,4.2h-7.65v24.25h12.1v14.06h-3.88v5.88h5.47c2.37,0,4.29-1.92,4.29-4.29v-15.65h7.18c2.37,0,4.29-1.92,4.29-4.29v-19.96h-12.54c.62-1.28.99-2.7,1.04-4.2h13.23v-5.88h-41.3Zm33.68,28.45h-17.69v-3.3h17.69v3.3Zm0-12.49v3.3h-17.69v-3.3h17.69Z"/>
    <path d="m185.75,44.18h-26.02v5.56h19.65l-1.23,18.94h-10.17l1.13-15.94h-5.71l-1.56,21.5h24.29c-.07,7.12-.42,11.32-1.05,13.03-.89,2.44-2.45,5.15-8.43,5.15h-9.32v5.7h9.58c7.26,0,11.64-2.71,13.77-8.54,1.26-3.44,1.43-11.13,1.43-18.33v-2.58h-7.97l1.62-24.51Z"/>
    <path d="m159.11,93.27v-7.1h20.6v-5.96h-20.61v5.87h-5.96v5.82h-4.75v-10h2.73c4.1,0,6.79-2.69,6.79-6.79v-25.17h-9.52v-7.95h-5.96v7.95h-9.26v31.96h9.26v10h-9.37v6.23h21.19c3.03,0,4.86-1.83,4.86-4.86Zm-10.71-37.5h3.56v19.48c0,.46-.37.83-.83.83h-2.73v-20.3Zm-5.96,20.3h-3.29v-20.3h3.29v20.3Z"/>
    <path d="m242.59,59.59l4.89-.63c-.06-8.69-1.25-17.04-1.3-17.4l-5.9.85s.04.26.09.65c.35,1.8,1.7,8.98,2.22,16.52Z"/>
    <path d="m287.97,73.28h15.58v24.85h6.24v-24.85h14.27v-5.96h-14.27v-17.49h11.26v-5.96h-50.99v5.96h11.95v17.49h-14.96v5.96h14.96v2.52c0,8.08-4.37,15.16-10.87,19l3.87,4.6c7.78-4.98,12.95-13.7,12.95-23.6v-2.52Zm0-23.46h15.58v17.49h-15.58v-17.49Z"/>
    <path d="m226.21,96.13l2.75,3.27c5.37-4.51,10.1-8.8,14.14-13.31,4.04,4.5,8.76,8.8,14.14,13.31l4-4.77c-5.45-4.57-10.18-8.88-14.13-13.4,2.03-2.7,3.84-5.52,5.4-8.54,4.04-7.84,4.38-16.23,4.38-24.15h-6.23c0,7.16-.29,14.7-3.69,21.3-1.14,2.21-2.43,4.3-3.87,6.33-1.44-2.03-2.74-4.12-3.87-6.33-3.4-6.6-3.69-14.14-3.69-21.3h-6.23c0,7.57.34,16.31,4.38,24.15,1.56,3.02,3.36,5.84,5.4,8.54-3.46,3.96-7.52,7.76-12.14,11.71v-6.87h-5.96v5.82h-4.75v-10h2.73c4.1,0,6.79-2.69,6.79-6.79v-25.17h-9.52v-7.95h-5.96v7.95h-9.26v31.96h9.26v10h-9.37v6.23h21.19c1.9,0,3.33-.72,4.13-2Zm-9.98-40.36h3.56v19.48c0,.46-.37.83-.83.83h-2.73v-20.3Zm-5.96,20.3h-3.29v-20.3h3.29v20.3Z"/>
    <path d="m342.04,54.33c-1.06-4.6-2.37-9.01-3.18-11.58l-5.9.87c.69,2.15,2.1,6.74,3.23,11.54l5.84-.83Z"/>
    <path d="m341.15,70.34c-1.06-4.6-2.37-9.01-3.18-11.58l-5.9.87c.69,2.15,2.1,6.74,3.23,11.54l5.84-.83Z"/>
    <path d="m341.15,76.6l-5.8-.97c-1.35,8.07-4.35,17.74-5.43,21.1l5.95.71c1.32-4.18,3.98-13.07,5.28-20.84Z"/>
    <path d="m209.46,111.52c-4.64,0-8.41,3.77-8.41,8.41s3.77,8.41,8.41,8.41,8.41-3.77,8.41-8.41-3.77-8.41-8.41-8.41Zm0,13.76c-2.95,0-5.35-2.4-5.35-5.35s2.4-5.35,5.35-5.35,5.35,2.4,5.35,5.35-2.4,5.35-5.35,5.35Z"/>
    <path d="m310.87,111.52c-4.64,0-8.41,3.77-8.41,8.41s3.77,8.41,8.41,8.41,8.41-3.77,8.41-8.41-3.77-8.41-8.41-8.41Zm0,13.76c-2.95,0-5.35-2.4-5.35-5.35s2.4-5.35,5.35-5.35,5.35,2.4,5.35,5.35-2.4,5.35-5.35,5.35Z"/>
  </g>
  <path class="cls-1" d="m55.48,138.11c-14.17,0-28.34-5.19-39.13-15.57C5.81,112.39,0,98.87,0,84.48s5.71-27.66,16.08-37.78c.14-12.35,3.14-26.48,15.9-39.48.8-.81,1.9-1.27,3.11-1.3,1.21.01,2.32.49,3.14,1.36l6.43,6.82c.71.76,1.08,1.74,1.04,2.77-.05,1.05-.51,2.02-1.32,2.73-5.96,5.3-9.61,10.88-11.85,16.03,10.09-4.41,21.28-5.75,32.04-4.04,3.5-9.91,10.41-21.64,24.03-30.92.87-.59,1.9-.8,2.92-.59,1,.21,1.86.8,2.41,1.66l5.72,9c.55.87.74,1.94.51,2.93-.22.94-.78,1.72-1.58,2.22-7.24,4.46-15.84,11.78-20.19,19.73,5.87,2.57,11.38,6.16,16.2,10.8l1.4,1.34c.79.76.82,2.02.05,2.82l-7.8,8.11c-.76.79-2.02.82-2.82.05l-.86-.83c-15.21-14.64-39.16-16.01-55.4-2.53-8.96,7.43-13.94,17.9-13.94,29.09s4.98,21.66,13.94,29.09c7.58,6.28,16.82,9.34,26.08,9.33l.23,15.21Z"/>
  <path class="cls-3" d="m29.18,113.57c16.25,13.48,40.19,12.11,55.4-2.53l.94-.91c.79-.76,2.05-.74,2.82.05l7.8,8.11c.76.79.74,2.05-.05,2.82l-1.48,1.42c-10.79,10.38-24.96,15.57-39.13,15.57-14.17,0-28.34-5.19-39.13-15.57l12.82-8.97Z"/>
  <path class="cls-2" d="m29.18,113.57c16.25,13.48,40.19,12.11,55.4-2.53l.94-.91c.79-.76,2.05-.74,2.82.05l7.8,8.11c.76.79.74,2.05-.05,2.82l-1.48,1.42c-10.79,10.38-24.96,15.57-39.13,15.57-14.17,0-28.34-5.19-39.13-15.57l12.82-8.97Z"/>
  <g>
    <path class="cls-1" d="m45.95,106.33l-20.67-20.68c-.62-.62-.62-1.63,0-2.25l20.79-20.79c.62-.62,1.63-.62,2.25,0l8.52,8.52c.62.62.62,1.63,0,2.25l-11.14,11.14,11.03,11.03c.62.62.62,1.63,0,2.25l-8.52,8.52c-.62.62-1.63.62-2.25,0Z"/>
    <path class="cls-1" d="m93.36,106.3l-8.52-8.52c-.62-.62-.62-1.63,0-2.25l11.14-11.14-11.03-11.03c-.62-.62-.62-1.63,0-2.25l8.52-8.52c.62-.62,1.63-.62,2.25,0l20.67,20.68c.62.62.62,1.63,0,2.25l-20.79,20.79c-.62.62-1.63.62-2.25,0Z"/>
    <rect class="cls-1" x="60.23" y="76.84" width="21.21" height="15.24" rx="1.59" ry="1.59" transform="translate(-38.97 74.83) rotate(-45)"/>
  </g>
</svg>