
<?xml version="1.0" encoding="UTF-8"?>
<svg id="_图层_1" data-name="图层 1" xmlns="http://www.w3.org/2000/svg" viewBox="0 0 402.85 110.91">
  <defs>
    <style>
      .cls-1 {
        fill: #fff;
      }
    </style>
  </defs>
  <g>
    <path class="cls-1" d="m44.56,110.91c-11.38,0-22.76-4.17-31.42-12.5C4.66,90.26,0,79.4,0,67.84s4.59-22.22,12.91-30.34c.11-9.92,2.52-21.26,12.77-31.71.64-.65,1.53-1.02,2.5-1.04.98,0,1.87.4,2.52,1.09l5.17,5.48c.57.61.87,1.4.83,2.22-.04.84-.41,1.62-1.06,2.2-4.78,4.25-7.72,8.74-9.51,12.87,8.1-3.54,17.09-4.62,25.73-3.24,2.81-7.96,8.36-17.38,19.3-24.83.7-.47,1.53-.64,2.35-.47.81.17,1.5.64,1.94,1.34l4.59,7.22c.45.7.59,1.56.41,2.35-.17.75-.62,1.39-1.27,1.78-5.81,3.58-12.72,9.46-16.21,15.84,4.72,2.06,9.14,4.95,13.01,8.68l1.12,1.08c.64.61.66,1.62.04,2.26l-6.27,6.51c-.61.64-1.62.66-2.26.04l-.69-.67c-12.22-11.76-31.44-12.85-44.49-2.03-7.19,5.97-11.19,14.38-11.19,23.36s4,17.4,11.19,23.36c6.08,5.05,13.51,7.5,20.94,7.49l.18,12.21Z"/>
    <path class="cls-1" d="m23.43,91.21c13.05,10.82,32.28,9.73,44.49-2.03l.76-.73c.64-.61,1.65-.59,2.26.04l6.27,6.51c.61.64.59,1.65-.04,2.26l-1.19,1.14c-8.66,8.33-20.04,12.5-31.42,12.5-11.38,0-22.76-4.17-31.42-12.5l10.29-7.2Z"/>
    <g>
      <path class="cls-1" d="m36.9,85.39l-16.6-16.6c-.5-.5-.5-1.31,0-1.81l16.69-16.7c.5-.5,1.31-.5,1.81,0l6.84,6.84c.5.5.5,1.31,0,1.81l-8.95,8.95,8.85,8.85c.5.5.5,1.31,0,1.81l-6.84,6.84c-.5.5-1.31.5-1.81,0Z"/>
      <path class="cls-1" d="m74.97,85.37l-6.84-6.84c-.5-.5-.5-1.31,0-1.81l8.95-8.95-8.85-8.85c-.5-.5-.5-1.31,0-1.81l6.84-6.84c.5-.5,1.31-.5,1.81,0l16.6,16.6c.5.5.5,1.31,0,1.81l-16.7,16.7c-.5.5-1.31.5-1.81,0Z"/>
      <rect class="cls-1" x="48.37" y="61.71" width="17.03" height="12.24" rx="1.28" ry="1.28" transform="translate(-31.3 60.09) rotate(-45)"/>
    </g>
  </g>
  <g>
    <path class="cls-1" d="m373.05,94.94c-1.82,2.14-4.52,3.49-7.51,3.49-5.34,0-9.72-4.34-9.72-9.72s4.38-9.72,9.72-9.72c2.99,0,5.7,1.35,7.51,3.49l3.88-2.92c-2.69-3.32-6.79-5.44-11.39-5.44-8.05,0-14.6,6.51-14.6,14.6s6.55,14.6,14.6,14.6c4.61,0,8.69-2.13,11.37-5.46l-3.86-2.91Z"/>
    <path class="cls-1" d="m342.17,93.25c-1.48-1.17-2.78-1.39-2.74-1.68.03-.25.73-.13,1.96-.5,3.82-1.1,6.08-3.97,6.08-7.73,0-6.61-4.58-8.5-11.19-8.5h-12.14v28.23s1.01.25,2.45.25,2.45-.24,2.45-.25v-10.68h3.16c2.25,0,3.94.28,5.15,1.21,1.3.99,2.33,2.34,3.7,4.47.8,1.25,2.79,5,2.79,5.01,0,0,1.17.24,2.87.24s2.8-.38,2.8-.38c-3.2-5.1-4.92-7.75-7.35-9.67m-6.68-5.06h-6.44v-9.23h7.31c4.24,0,6.21,1.18,6.21,4.37,0,3.67-2.85,4.86-7.08,4.86"/>
    <path class="cls-1" d="m315.05,74.85v16.47c0,4.52-2.67,7.39-7.1,7.39s-7.1-2.86-7.1-7.39v-16.47s-1.02-.25-2.47-.25-2.45.25-2.45.25v16.64c0,8.22,5.27,11.82,12.01,11.82s12.01-3.6,12.01-11.82v-16.64s-1.02-.25-2.45-.25-2.47.25-2.47.25Z"/>
    <path class="cls-1" d="m249.09,103.31c-.31,0-.63-.01-.95-.03-4.95-.3-9.14-2.81-11.2-6.72l3.62-2.67c1.33,2.67,4.67,4.22,7.87,4.41,2.69.16,4.8-.72,5.46-1.68.98-1.44,1.1-3.54-.41-4.59-1.39-.97-3.64-1.38-5.82-1.79-3.7-.68-7.89-1.46-9.27-5.4-1.07-3.07.35-7.58,4.5-9.53,4.56-2.13,13.27-1.41,16.55,4.59l-3.62,2.67c-1.84-3.68-8.38-3.89-10.81-2.74-1.77.83-2.18,2.61-1.91,3.37.42,1.21,2.93,1.79,5.47,2.15,2.59.36,5.48,1.02,7.75,2.59,3.64,2.52,4.38,7.58,1.67,11.51-1.67,2.42-5.02,3.86-8.91,3.86Z"/>
    <path class="cls-1" d="m277.78,74.1c-8.07,0-14.6,6.54-14.6,14.6s6.54,14.6,14.6,14.6,14.6-6.54,14.6-14.6-6.54-14.6-14.6-14.6Zm0,24.33c-5.37,0-9.73-4.35-9.73-9.73s4.35-9.73,9.73-9.73,9.73,4.35,9.73,9.73-4.35,9.73-9.73,9.73Z"/>
    <path class="cls-1" d="m121.46,74.1c-8.07,0-14.6,6.54-14.6,14.6s6.54,14.6,14.6,14.6,14.6-6.54,14.6-14.6-6.54-14.6-14.6-14.6Zm0,24.33c-5.37,0-9.73-4.35-9.73-9.73s4.35-9.73,9.73-9.73,9.73,4.35,9.73,9.73-4.35,9.73-9.73,9.73Z"/>
    <path class="cls-1" d="m152.11,74.83h-12.53v28.31c.08,0,1.02.17,2.47.17s2.46-.24,2.47-.25v-9.08h7.76c5.83,0,9.76-3.84,9.76-9.68s-3.88-9.47-9.93-9.47m-.82,14.76h-6.77v-10.38h6.77c4.24,0,6.06,1.47,6.06,5.21s-2.27,5.17-6.06,5.17"/>
    <polygon class="cls-1" points="402.85 79.64 402.85 75.1 381.11 75.1 381.11 79.64 381.11 98.86 381.11 103.06 381.11 103.31 402.85 103.31 402.85 98.79 386.34 98.79 386.34 91.41 401.43 91.41 401.43 86.87 386.34 86.87 386.34 79.64 402.85 79.64"/>
    <polygon class="cls-1" points="187.33 79.64 187.33 75.1 165.59 75.1 165.59 79.64 165.59 98.86 165.59 103.06 165.59 103.31 187.33 103.31 187.33 98.79 170.82 98.79 170.82 91.41 185.91 91.41 185.91 86.87 170.82 86.87 170.82 79.64 187.33 79.64"/>
    <path class="cls-1" d="m210.73,74.93v20.4c-4.83-7.77-9.67-14.81-14.37-20.4,0,0-1-.25-2.42-.25s-2.41.24-2.42.25v28.14s.99.25,2.41.25,2.4-.24,2.41-.25v-21.8c5.14,7.08,9.98,14.38,14.32,21.8,0,0,1.02.25,2.45.25s2.44-.25,2.44-.25v-28.14s-.99-.25-2.41-.25-2.41.25-2.41.25Z"/>
    <path class="cls-1" d="m117.48,33.9c-4.12,8.72-7.66,18.19-10.62,28.21,0,0,1.01.24,2.54.24,1.45,0,2.46-.24,2.47-.25.93-3.28,2.42-7.7,2.42-7.7,0,0,3.89-.46,6.5-.24,3.07.26,4.64.69,6.1,1.34.64.28.97.49,1.14,1,.34,1.05.95,3.07,1.67,5.59,0,0,1.05.25,2.52.25s2.48-.24,2.48-.24c-2.89-10.03-6.4-19.5-10.59-28.22h-6.63Zm3.84,16.69c-2.09,0-4.54.35-6.01.84,1.74-5.34,4.57-11.93,5.06-13.03.14-.32.28-.41.43-.41.14,0,.28.08.4.35.52,1.16,3.35,7.75,5.01,12.7-1.15-.18-2.72-.45-4.89-.45Z"/>
    <path class="cls-1" d="m157.47,33.97v20.4c-4.83-7.77-9.67-14.81-14.37-20.4,0,0-1-.25-2.42-.25s-2.41.24-2.42.25v28.14s.99.25,2.41.25,2.4-.24,2.41-.25v-21.8c5.14,7.08,9.98,14.38,14.32,21.8,0,0,1.02.25,2.45.25s2.44-.25,2.44-.25v-28.14s-.99-.25-2.41-.25-2.41.25-2.41.25Z"/>
    <path class="cls-1" d="m166.46,38.53h10.2v23.58s1.08.25,2.61.25,2.61-.24,2.61-.25v-23.58h10.2v-4.54h-25.64v4.54Z"/>
  </g>
</svg>